<svg width="40" height="60" viewBox="0 0 40 60" fill="none" xmlns="http://www.w3.org/2000/svg">
  <!-- Muela dental con implante usando fill-rule="evenodd" para crear agujeros -->
  <path 
    d="
      <!-- Contorno exterior de la muela (sentido horario) -->
      M12 8 
      C14 6, 18 5, 22 8
      C24 6, 28 8, 30 12
      C32 16, 31 20, 28 24
      C26 26, 25 28, 24 32
      C23 36, 22 40, 21 44
      C20 48, 19 50, 17 52
      C15 54, 14 52, 15 50
      C16 48, 17 46, 17 44
      C17 42, 18 40, 18 38
      C18 36, 19 34, 20 32
      C21 30, 22 28, 23 26
      C24 24, 25 22, 25 20
      C25 18, 24 16, 22 14
      C20 12, 18 12, 16 14
      C14 16, 13 18, 12 20
      C11 22, 11 20, 12 18
      C12 16, 12 14, 12 12
      C12 10, 12 9, 12 8
      Z
      
      <!-- Líneas del implante (sentido antihorario para crear agujeros) -->
      M15 36
      L23 35
      Z
      M15 38
      L22.5 37
      Z
      M15 40
      L22 39
      Z
      M15 42
      L21.5 41
      Z
      M15 44
      L21 43
      Z
      M15 46
      L20.5 45
      Z
    " 
    fill="#304D6B" 
    fill-rule="evenodd"
  />
</svg>